<?xml version="1.0" encoding="UTF-8"?>
<svg version="1.1" xmlns="http://www.w3.org/2000/svg" width="500" height="500">
<path d="M0 0 C165 0 330 0 500 0 C500 165 500 330 500 500 C335 500 170 500 0 500 C0 335 0 170 0 0 Z " fill="#FEFEFE" transform="translate(0,0)"/>
<path d="M0 0 C46.09240848 0 86.95638178 2.15833157 130 18 C130.93070313 18.3417627 131.86140625 18.68352539 132.8203125 19.03564453 C185.95477191 38.85456553 233.76078225 73.67473181 268 119 C268.45761719 119.60070312 268.91523438 120.20140625 269.38671875 120.8203125 C299.9646385 161.07695755 320.24906229 208.12162909 327.57519531 258.18652344 C328.03573183 261.23665151 328.54788904 264.27562627 329.06640625 267.31640625 C331.12768907 279.60181052 331 291.44756249 331 304 C312.85 304 294.7 304 276 304 C275.67 296.41 275.34 288.82 275 281 C274.39783296 275.80941965 273.75364722 270.7590836 272.875 265.625 C272.76707123 264.98044861 272.65914246 264.33589722 272.54794312 263.67181396 C264.70792378 217.21175893 244.12221852 175.50530617 213.5 139.91015625 C212.06814976 138.24339309 210.64533478 136.56854342 209.25 134.87109375 C206.12865096 131.07967249 202.72513979 127.90996845 198.98046875 124.734375 C197.16821441 123.14731203 195.52837624 121.49916378 193.875 119.75 C171.9559887 97.47988326 141.38153106 81.23418296 112.29052734 70.8269043 C110.15003 70.0541624 108.02623958 69.24671022 105.90234375 68.4296875 C95.43764445 64.49742623 84.43818653 61.9622059 73.5 59.75 C72.70045898 59.58701416 71.90091797 59.42402832 71.07714844 59.25610352 C65.35105546 58.14111585 59.85945772 57.58594577 54 57 C54 138.51 54 220.02 54 304 C36.18 304 18.36 304 0 304 C0 203.68 0 103.36 0 0 Z " fill="#000000" transform="translate(30,160)"/>
<path d="M0 0 C0.99 0.495 0.99 0.495 2 1 C2.57495117 2.84741211 2.57495117 2.84741211 3.04296875 5.27734375 C3.22569336 6.17445068 3.40841797 7.07155762 3.59667969 7.99584961 C3.79165039 8.96659424 3.98662109 9.93733887 4.1875 10.9375 C10.61493879 40.72843718 26.61038876 68.14775468 52.375 85.375 C69.80798767 96.57803845 87.64280625 102.67029943 108 106 C108 106.66 108 107.32 108 108 C107.030625 108.15855469 106.06125 108.31710938 105.0625 108.48046875 C81.32005657 112.53427556 59.07551109 121.14128304 41.2890625 137.88671875 C39 140 39 140 36.5390625 141.875 C17.18767239 158.07062495 4.81150443 187.38878854 2.25 212 C2.15357267 213.33245037 2.06415354 214.6656063 2 216 C1.34 215.67 0.68 215.34 0 215 C-0.52514575 212.47140805 -0.94237772 209.98948337 -1.3125 207.4375 C-5.17763399 183.76511382 -15.31728311 162.38180217 -32 145 C-32.804375 144.154375 -33.60875 143.30875 -34.4375 142.4375 C-35.283125 141.633125 -36.12875 140.82875 -37 140 C-37.70511719 139.32324219 -38.41023438 138.64648438 -39.13671875 137.94921875 C-56.19398287 122.01660941 -78.24175782 112.11047679 -101.27490234 108.98706055 C-103.19261801 108.71783709 -105.09844456 108.36633529 -107 108 C-107.33 107.34 -107.66 106.68 -108 106 C-106.94425781 105.86464844 -105.88851562 105.72929687 -104.80078125 105.58984375 C-71.98623211 100.98574244 -43.12975527 85.45811448 -22.87036133 58.84082031 C-10.17550437 41.35023911 -3.40525746 21.21979877 0 0 Z " fill="#5271FE" transform="translate(350,48)"/>
<path d="M0 0 C2.85779017 1.29719924 4.91008536 2.6636826 7.11621094 4.88916016 C7.69651062 5.4696109 8.2768103 6.05006165 8.87469482 6.64810181 C9.48838928 7.27211884 10.10208374 7.89613586 10.734375 8.5390625 C11.37240051 9.17991791 12.01042603 9.82077332 12.66778564 10.48104858 C14.69994069 12.52437821 16.72502218 14.57455982 18.75 16.625 C20.1284453 18.0134786 21.50734636 19.4015049 22.88671875 20.7890625 C26.26311894 24.18748697 29.63319288 27.59207254 33 31 C31.4152642 34.86328627 28.94043113 37.28876923 25.9921875 40.203125 C25.50670441 40.6857782 25.02122131 41.1684314 24.52102661 41.66571045 C22.97700134 43.19858562 21.42615176 44.72434004 19.875 46.25 C18.82375991 47.29120361 17.77297343 48.33286541 16.72265625 49.375 C14.15366996 51.92199464 11.57851839 54.46265177 9 57 C1.62855955 51.49199751 1.62855955 51.49199751 -1.625 48.9453125 C-12.17516479 40.85916646 -24.32156306 34.95598109 -37 31 C-37.87785156 30.72542969 -38.75570313 30.45085937 -39.66015625 30.16796875 C-45.86613684 28.35528665 -52.03118991 27.31967654 -58.4453125 26.52734375 C-59.70988281 26.26630859 -59.70988281 26.26630859 -61 26 C-61.33 25.34 -61.66 24.68 -62 24 C-60.94425781 23.86464844 -59.88851562 23.72929687 -58.80078125 23.58984375 C-36.90103394 20.51716234 -17.8460013 13.00795492 0 0 Z " fill="#5271FE" transform="translate(304,130)"/>
<path d="M0 0 C0.66 0.33 1.32 0.66 2 1 C2.57495117 2.84741211 2.57495117 2.84741211 3.04296875 5.27734375 C3.22569336 6.17445068 3.40841797 7.07155762 3.59667969 7.99584961 C3.79165039 8.96659424 3.98662109 9.93733887 4.1875 10.9375 C10.61493879 40.72843718 26.61038876 68.14775468 52.375 85.375 C69.80798767 96.57803845 87.64280625 102.67029943 108 106 C108 106.66 108 107.32 108 108 C107.030625 108.15855469 106.06125 108.31710938 105.0625 108.48046875 C96.82466089 109.89385398 88.96637874 111.74202606 81.0546875 114.46166992 C79.38572326 115.02413971 77.69406903 115.51839434 76 116 C74 115 74 115 73.11294556 113.18963623 C71.80472014 110.61580163 70.24010494 108.9998462 68.19287109 106.96582031 C67.41221283 106.18531311 66.63155457 105.40480591 65.82723999 104.60064697 C64.98448517 103.76821472 64.14173035 102.93578247 63.2734375 102.078125 C62.41062164 101.21813904 61.54780579 100.35815308 60.65884399 99.47210693 C57.90221971 96.7266769 55.13872201 93.9882831 52.375 91.25 C50.50475143 89.38978217 48.63495411 87.52911054 46.765625 85.66796875 C42.1823064 81.10670055 37.59332522 76.55118989 33 72 C27.60809603 76.4978935 22.60608316 81.26126542 17.66015625 86.2421875 C16.89319931 87.01055939 16.12624237 87.77893127 15.33604431 88.57058716 C12.9091526 91.00303509 10.48577873 93.43895322 8.0625 95.875 C6.40843514 97.53408552 4.75414055 99.19294202 3.09960938 100.8515625 C-0.93625433 104.89839709 -4.96924277 108.94807953 -9 113 C-7.6238464 116.09179136 -6.04841555 118.19638753 -3.65185547 120.57519531 C-2.97130096 121.25559875 -2.29074646 121.9360022 -1.58956909 122.63702393 C-0.85618317 123.36008728 -0.12279724 124.08315063 0.6328125 124.828125 C1.38464813 125.57713074 2.13648376 126.32613647 2.91110229 127.09783936 C5.31107901 129.4866302 7.71792009 131.86836897 10.125 134.25 C11.75436352 135.86933169 13.38327534 137.48911802 15.01171875 139.109375 C19.00258806 143.07820505 22.99911415 147.04126899 27 151 C24 151 24 151 22.3105011 149.67126465 C21.69539169 149.04949341 21.08028229 148.42772217 20.4465332 147.78710938 C19.74603348 147.08638306 19.04553375 146.38565674 18.32380676 145.66369629 C17.57370834 144.89811401 16.82360992 144.13253174 16.05078125 143.34375 C14.89185616 142.17845764 14.89185616 142.17845764 13.70951843 140.98962402 C11.23673885 138.50001473 8.7745763 136.00019042 6.3125 133.5 C4.64066155 131.81312034 2.96814401 130.12691343 1.29492188 128.44140625 C-2.81130525 124.30205286 -6.90885641 120.15425893 -11 116 C-14.93088136 119.31599075 -18.77715018 122.65139165 -22.40234375 126.3046875 C-23.14677734 127.05234375 -23.89121094 127.8 -24.65820312 128.5703125 C-25.41037109 129.33085937 -26.16253906 130.09140625 -26.9375 130.875 C-28.10635742 132.050625 -28.10635742 132.050625 -29.29882812 133.25 C-31.20154085 135.16438581 -33.10186171 137.08108034 -35 139 C-35.66 138.67 -36.32 138.34 -37 138 C-29.41 130.41 -21.82 122.82 -14 115 C-15.61693667 111.76612666 -16.47195593 110.27997412 -18.88916016 107.88378906 C-19.4696109 107.30348938 -20.05006165 106.7231897 -20.64810181 106.12530518 C-21.27211884 105.51161072 -21.89613586 104.89791626 -22.5390625 104.265625 C-23.17991791 103.62759949 -23.82077332 102.98957397 -24.48104858 102.33221436 C-26.52437821 100.30005931 -28.57455982 98.27497782 -30.625 96.25 C-32.0134786 94.8715547 -33.4015049 93.49265364 -34.7890625 92.11328125 C-38.18748697 88.73688106 -41.59207254 85.36680712 -45 82 C-43.515 81.505 -43.515 81.505 -42 81 C-41.44977173 81.65742188 -41.44977173 81.65742188 -40.88842773 82.328125 C-35.28283281 88.88784601 -29.18331472 94.92922433 -23.0625 101 C-21.98609346 102.07137887 -20.90991986 103.14299182 -19.83398438 104.21484375 C-17.22533255 106.81259638 -14.61355529 109.40717962 -12 112 C-6.60809603 107.5021065 -1.60608316 102.73873458 3.33984375 97.7578125 C4.10680069 96.98944061 4.87375763 96.22106873 5.66395569 95.42941284 C8.0908474 92.99696491 10.51422127 90.56104678 12.9375 88.125 C14.59156486 86.46591448 16.24585945 84.80705798 17.90039062 83.1484375 C21.93625433 79.10160291 25.96924277 75.05192047 30 71 C28.61446916 67.85080363 27.02880203 65.82540951 24.52832031 63.47583008 C23.82128967 62.80445511 23.11425903 62.13308014 22.38580322 61.44136047 C21.62426941 60.72465683 20.8627356 60.00795319 20.078125 59.26953125 C18.47912648 57.72990845 16.88151156 56.18884761 15.28515625 54.64648438 C12.76706554 52.22111883 10.24230029 49.80527444 7.69287109 47.4128418 C5.2332247 45.09851004 2.81016596 42.75066734 0.390625 40.39453125 C-0.37900574 39.68794876 -1.14863647 38.98136627 -1.94158936 38.25337219 C-6.97675453 33.2710385 -6.97675453 33.2710385 -7.04335022 29.62965393 C-6.53965339 27.30958454 -5.84203527 25.216858 -5 23 C-4.63572707 21.54242984 -4.28801819 20.08051123 -3.96484375 18.61328125 C-3.44948977 16.45192978 -2.93233293 14.29104417 -2.41210938 12.13085938 C-1.4537818 8.10294614 -0.62577051 4.0965389 0 0 Z " fill="#374CAA" transform="translate(350,48)"/>
<path d="M0 0 C0.66 0.33 1.32 0.66 2 1 C2.57495117 2.84741211 2.57495117 2.84741211 3.04296875 5.27734375 C3.22569336 6.17445068 3.40841797 7.07155762 3.59667969 7.99584961 C3.88913574 9.45196655 3.88913574 9.45196655 4.1875 10.9375 C8.15924766 29.34640109 14.84716211 46.37818827 27 61 C26.505 61.99 26.505 61.99 26 63 C25.62488281 62.55269531 25.24976563 62.10539062 24.86328125 61.64453125 C21.71762182 57.92837439 18.49040124 54.40090377 15 51 C14.175 50.154375 13.35 49.30875 12.5 48.4375 C10.10609032 46.00543753 10.10609032 46.00543753 7.625 44.1875 C4.58782626 41.65652189 2.17537489 38.83472555 -0.3515625 35.8046875 C-2.06632331 33.78227744 -2.06632331 33.78227744 -5 32 C-5 31.34 -5 30.68 -5 30 C-5.66 29.67 -6.32 29.34 -7 29 C-6.66226562 27.91203125 -6.32453125 26.8240625 -5.9765625 25.703125 C-3.37707946 17.1880459 -1.14340449 8.85711838 0 0 Z " fill="#5572FA" transform="translate(350,48)"/>
<path d="M0 0 C0.66 0 1.32 0 2 0 C3.33203125 1.35546875 3.33203125 1.35546875 4.8125 3.1875 C8.04947663 7.08444273 11.33209234 10.72712311 15.375 13.8125 C18.38923584 16.3243632 20.76261415 19.13652436 23.3046875 22.11328125 C25.33753446 24.37564319 27.58553009 26.15737823 30 28 C31.68762851 29.6454378 33.3540349 31.31288577 35 33 C35.94875 33.845625 36.8975 34.69125 37.875 35.5625 C40 38 40 38 39.87513733 39.88873291 C38.74487011 42.61550035 37.22029199 44.1395272 35.12280273 46.21777344 C33.89163979 47.4485965 33.89163979 47.4485965 32.63560486 48.70428467 C31.74394119 49.58046448 30.85227753 50.45664429 29.93359375 51.359375 C28.57065941 52.71594208 28.57065941 52.71594208 27.18019104 54.09991455 C24.76846236 56.50020753 22.34785998 58.89135369 19.92529297 61.28070068 C17.45323168 63.72203361 14.98967695 66.17191739 12.52539062 68.62109375 C7.69188105 73.42246174 2.84894227 78.21421949 -2 83 C-0.6238464 86.09179136 0.95158445 88.19638753 3.34814453 90.57519531 C4.02869904 91.25559875 4.70925354 91.9360022 5.41043091 92.63702393 C6.14381683 93.36008728 6.87720276 94.08315063 7.6328125 94.828125 C8.38464813 95.57713074 9.13648376 96.32613647 9.91110229 97.09783936 C12.31107901 99.4866302 14.71792009 101.86836897 17.125 104.25 C18.75436352 105.86933169 20.38327534 107.48911802 22.01171875 109.109375 C26.00258806 113.07820505 29.99911415 117.04126899 34 121 C31 121 31 121 29.3105011 119.67126465 C28.69539169 119.04949341 28.08028229 118.42772217 27.4465332 117.78710938 C26.74603348 117.08638306 26.04553375 116.38565674 25.32380676 115.66369629 C24.57370834 114.89811401 23.82360992 114.13253174 23.05078125 113.34375 C22.27816452 112.56688843 21.50554779 111.79002686 20.70951843 110.98962402 C18.23673885 108.50001473 15.7745763 106.00019042 13.3125 103.5 C11.64066155 101.81312034 9.96814401 100.12691343 8.29492188 98.44140625 C4.18869475 94.30205286 0.09114359 90.15425893 -4 86 C-7.93088136 89.31599075 -11.77715018 92.65139165 -15.40234375 96.3046875 C-16.14677734 97.05234375 -16.89121094 97.8 -17.65820312 98.5703125 C-18.78645508 99.71113281 -18.78645508 99.71113281 -19.9375 100.875 C-21.10635742 102.050625 -21.10635742 102.050625 -22.29882812 103.25 C-24.20154085 105.16438581 -26.10186171 107.08108034 -28 109 C-28.66 108.67 -29.32 108.34 -30 108 C-22.41 100.41 -14.82 92.82 -7 85 C-8.61693667 81.76612666 -9.47195593 80.27997412 -11.88916016 77.88378906 C-12.4696109 77.30348938 -13.05006165 76.7231897 -13.64810181 76.12530518 C-14.27211884 75.51161072 -14.89613586 74.89791626 -15.5390625 74.265625 C-16.17991791 73.62759949 -16.82077332 72.98957397 -17.48104858 72.33221436 C-19.52437821 70.30005931 -21.57455982 68.27497782 -23.625 66.25 C-25.0134786 64.8715547 -26.4015049 63.49265364 -27.7890625 62.11328125 C-31.18748697 58.73688106 -34.59207254 55.36680712 -38 52 C-36.515 51.505 -36.515 51.505 -35 51 C-34.63318115 51.43828125 -34.2663623 51.8765625 -33.88842773 52.328125 C-28.28283281 58.88784601 -22.18331472 64.92922433 -16.0625 71 C-14.98609346 72.07137887 -13.90991986 73.14299182 -12.83398438 74.21484375 C-10.22533255 76.81259638 -7.61355529 79.40717962 -5 82 C0.39190397 77.5021065 5.39391684 72.73873458 10.33984375 67.7578125 C11.10680069 66.98944061 11.87375763 66.22106873 12.66395569 65.42941284 C15.0908474 62.99696491 17.51422127 60.56104678 19.9375 58.125 C21.59156486 56.46591448 23.24585945 54.80705798 24.90039062 53.1484375 C28.93625433 49.10160291 32.96924277 45.05192047 37 41 C35.6111359 37.86348776 34.00040802 35.76369251 31.56005859 33.36474609 C30.85948334 32.67077728 30.15890808 31.97680847 29.43710327 31.2618103 C28.68184357 30.52314728 27.92658386 29.78448425 27.1484375 29.0234375 C26.37440582 28.25697906 25.60037415 27.49052063 24.80288696 26.70083618 C22.33166057 24.25404128 19.85412863 21.81378636 17.375 19.375 C14.10633362 16.15929812 10.84416745 12.93720943 7.5859375 9.7109375 C6.82662933 8.96822601 6.06732117 8.22551453 5.28500366 7.46029663 C4.59073273 6.77263214 3.89646179 6.08496765 3.18115234 5.37646484 C2.2575441 4.46856705 2.2575441 4.46856705 1.3152771 3.54232788 C0 2 0 2 0 0 Z " fill="#3347A0" transform="translate(343,78)"/>
<path d="M0 0 C1.20907902 0.66531332 2.4171795 1.33240467 3.625 2 C4.45128906 2.45503906 5.27757812 2.91007813 6.12890625 3.37890625 C8.15443013 4.52256939 10.16078977 5.70050138 12.15234375 6.90234375 C20.78919236 12.05675168 29.49293865 15.74043611 39 19 C38.06409496 20.1055189 37.12620142 21.20935453 36.1875 22.3125 C35.66542969 22.92738281 35.14335937 23.54226562 34.60546875 24.17578125 C34.07566406 24.77777344 33.54585938 25.37976563 33 26 C32.50113281 26.57105469 32.00226563 27.14210937 31.48828125 27.73046875 C30 29 30 29 27 29 C24.625 26.8125 24.625 26.8125 22 24 C21.175 23.175 20.35 22.35 19.5 21.5 C17 19 14.5 16.5 12 14 C11.154375 13.175 10.30875 12.35 9.4375 11.5 C7 9 7 9 4.875 6.3125 C3.03438927 3.80846331 3.03438927 3.80846331 0 2 C0 1.34 0 0.68 0 0 Z " fill="#5371FC" transform="translate(398,131)"/>
<path d="M0 0 C1.42170385 0.35542596 2.83779796 0.73352222 4.25 1.125 C6.41394564 1.49542912 8.58084797 1.84888824 10.75 2.1875 C12.58360601 2.49839607 14.41703596 2.81034117 16.25 3.125 C16.25 3.785 16.25 4.445 16.25 5.125 C14.76113281 5.38023437 14.76113281 5.38023437 13.2421875 5.640625 C4.0413632 7.26557256 -4.80978266 9.37308935 -13.75 12.125 C-11.09066767 6.1750797 -6.82340451 0.22744682 0 0 Z " fill="#5775FE" transform="translate(441.75,150.875)"/>
<path d="M0 0 C0.66 0 1.32 0 2 0 C3.33203125 1.35546875 3.33203125 1.35546875 4.8125 3.1875 C8.04947663 7.08444273 11.33209234 10.72712311 15.375 13.8125 C18.38923584 16.3243632 20.76261415 19.13652436 23.3046875 22.11328125 C25.33753446 24.37564319 27.58553009 26.15737823 30 28 C33.63749832 31.4556234 36.83879762 35.11623708 40 39 C37 39 37 39 35.23457336 37.60879517 C34.58393417 36.95752655 33.93329498 36.30625793 33.26293945 35.63525391 C32.15212761 34.53378525 32.15212761 34.53378525 31.01887512 33.4100647 C29.82810616 32.20548111 29.82810616 32.20548111 28.61328125 30.9765625 C27.79627243 30.16005219 26.97926361 29.34354187 26.13749695 28.50228882 C24.4099205 26.77236898 22.68604352 25.03874806 20.96557617 23.30175781 C18.32174045 20.63432293 15.66483702 17.98045705 13.00585938 15.328125 C11.33253915 13.64922867 9.65998666 11.96956674 7.98828125 10.2890625 C7.18836258 9.49005524 6.38844391 8.69104797 5.56428528 7.86782837 C4.83320053 7.12721161 4.10211578 6.38659485 3.34887695 5.62353516 C2.70062454 4.97067535 2.05237213 4.31781555 1.38447571 3.64517212 C0 2 0 2 0 0 Z " fill="#3A50B2" transform="translate(343,78)"/>
<path d="M0 0 C-1.61328125 2.0078125 -1.61328125 2.0078125 -4 4 C-6.98046875 4.2421875 -6.98046875 4.2421875 -10.1875 3.875 C-11.78658203 3.71644531 -11.78658203 3.71644531 -13.41796875 3.5546875 C-14.27003906 3.37164062 -15.12210938 3.18859375 -16 3 C-16.33 2.34 -16.66 1.68 -17 1 C-14.73052303 0.63724344 -12.45935265 0.28506814 -10.1875 -0.0625 C-8.92292969 -0.25972656 -7.65835938 -0.45695313 -6.35546875 -0.66015625 C-3 -1 -3 -1 0 0 Z " fill="#617BF3" transform="translate(259,153)"/>
<path d="M0 0 C2 1 2 1 2.66796875 2.92578125 C2.83941406 3.71339844 3.01085937 4.50101563 3.1875 5.3125 C3.36667969 6.09238281 3.54585938 6.87226562 3.73046875 7.67578125 C4.01067443 10.09204759 3.74132137 11.70242952 3 14 C2.67 13.34 2.34 12.68 2 12 C0.68 12.99 -0.64 13.98 -2 15 C-1.34 10.05 -0.68 5.1 0 0 Z " fill="#637EF9" transform="translate(350,48)"/>
<path d="M0 0 C5.03163018 4.29785078 10.02718443 8.63425542 15 13 C13.359375 13.828125 13.359375 13.828125 11 14 C8.8515095 12.30761363 7.11004956 10.71745399 5.25 8.75 C4.74339844 8.24597656 4.23679687 7.74195312 3.71484375 7.22265625 C0 3.40768194 0 3.40768194 0 0 Z " fill="#4C60BC" transform="translate(383,117)"/>
</svg>
